<svg width="47" height="32" viewBox="0 0 47 32" fill="none" xmlns="http://www.w3.org/2000/svg">
<path d="M42.4775 32H3.86159C2.83743 32 1.85522 31.5786 1.13103 30.8284C0.406845 30.0783 0 29.0609 0 28V4C0 2.93913 0.406845 1.92172 1.13103 1.17157C1.85522 0.421427 2.83743 0 3.86159 0L42.4775 0C43.5017 0 44.4839 0.421427 45.2081 1.17157C45.9323 1.92172 46.3391 2.93913 46.3391 4V28C46.3391 29.0609 45.9323 30.0783 45.2081 30.8284C44.4839 31.5786 43.5017 32 42.4775 32ZM23.0923 18.29L22.6772 20.29C23.477 20.6145 24.3283 20.781 25.1872 20.781H25.2703C27.706 20.781 29.2863 19.541 29.296 17.621C29.3018 16.158 28.1375 15.521 27.2049 15.012C26.5957 14.676 26.0657 14.386 26.0657 13.95C26.0657 13.65 26.3187 13.276 27.0311 13.18C27.1161 13.175 27.2011 13.172 27.286 13.172C27.9694 13.1726 28.6431 13.3398 29.2525 13.66L29.657 11.66C28.9656 11.3908 28.2332 11.252 27.4945 11.25C26.5062 11.2184 25.5344 11.5183 24.7238 12.105C24.3878 12.357 24.1139 12.6876 23.9244 13.0699C23.7348 13.4521 23.635 13.8753 23.6329 14.305C23.6146 15.605 24.7016 16.329 25.6506 16.815C26.5455 17.273 26.8477 17.563 26.8477 17.965C26.8477 18.59 26.1324 18.875 25.4672 18.875H25.3707C24.5764 18.8762 23.7941 18.6753 23.0923 18.29ZM32.0802 19.26H35.015L35.2949 20.64H37.4092L35.5363 11.39H33.6055C33.3976 11.3914 33.1949 11.4569 33.023 11.5779C32.8511 11.699 32.7178 11.8703 32.6401 12.07L29.1743 20.64H31.6071L32.0792 19.261L32.0802 19.26ZM20.7078 11.39L18.777 20.639H21.0939L23.0247 11.39H20.7078ZM8.90097 11.39L8.84401 11.66C9.63209 11.8193 10.3976 12.081 11.1223 12.439C11.2741 12.5129 11.4046 12.6264 11.5011 12.7685C11.5976 12.9105 11.6567 13.0761 11.6726 13.249L13.5156 20.64H15.958L19.7038 11.391H17.271L14.8671 17.68L13.9017 12.33C13.8617 12.068 13.7328 11.8294 13.5381 11.6571C13.3435 11.4848 13.0959 11.3901 12.8398 11.39H8.90097ZM34.6481 17.36H32.7173L33.9434 13.89L34.6481 17.359V17.36Z" fill="#333441"/>
</svg>
