<svg width="24" height="24" viewBox="0 0 24 24" fill="none" xmlns="http://www.w3.org/2000/svg">
<path d="M21.2376 11H17.2119L20.3398 7.76L18.9786 6.34L14.4799 11H12.5491V9L17.0478 4.34L15.677 2.93L12.5491 6.17V2H10.6183V6.17L7.49038 2.93L6.11951 4.34L10.6183 9V11H8.68747L4.18872 6.34L2.82751 7.76L5.9554 11H1.92969V13H5.9554L2.82751 16.24L4.18872 17.66L8.68747 13H10.6183V15L6.11951 19.66L7.49038 21.07L10.6183 17.83V22H12.5491V17.83L15.677 21.07L17.0478 19.66L12.5491 15V13H14.4799L18.9786 17.66L20.3398 16.24L17.2119 13H21.2376V11Z" fill="#333441"/>
</svg>
