<svg width="24" height="24" viewBox="0 0 24 24" fill="none" xmlns="http://www.w3.org/2000/svg">
<path d="M11.5831 6C12.6495 6 13.5139 5.10457 13.5139 4C13.5139 2.89543 12.6495 2 11.5831 2C10.5168 2 9.65234 2.89543 9.65234 4C9.65234 5.10457 10.5168 6 11.5831 6Z" fill="#333441"/>
<path d="M18.3425 12.9996V10.9996C17.6016 10.989 16.8706 10.8211 16.1948 10.5063C15.519 10.1916 14.9127 9.73664 14.4133 9.16963L13.1679 7.73963C13.0022 7.55086 12.8021 7.39793 12.579 7.28963C12.5694 7.28963 12.5694 7.27963 12.5597 7.27963H12.5501C12.2025 7.07135 11.801 6.98046 11.4012 7.01963C10.9132 7.07666 10.4633 7.32062 10.14 7.70362C9.81671 8.08662 9.64331 8.58099 9.65388 9.08963V14.9996C9.65541 15.5296 9.85932 16.0374 10.2211 16.4121C10.5828 16.7868 11.0731 16.9981 11.5847 16.9996H16.4117V21.9996H18.3425V16.4996C18.3409 15.9697 18.137 15.4619 17.7753 15.0872C17.4135 14.7124 16.9233 14.5012 16.4117 14.4996H13.5155V11.0496C14.88 12.2206 16.5728 12.9045 18.3425 12.9996ZM12.386 17.9996C12.2225 18.4771 11.9451 18.9039 11.5794 19.2403C11.2138 19.5766 10.7719 19.8116 10.2949 19.9233C9.81791 20.0351 9.32138 20.0198 8.85161 19.8791C8.38183 19.7384 7.9541 19.4767 7.60831 19.1185C7.26251 18.7603 7.00991 18.3173 6.87405 17.8307C6.73819 17.344 6.72349 16.8297 6.83133 16.3356C6.93917 15.8415 7.16604 15.3838 7.49078 15.005C7.81552 14.6263 8.22756 14.3389 8.68848 14.1696V12.0996C7.83419 12.2805 7.04315 12.6977 6.3994 13.3069C5.75564 13.9161 5.28321 14.6945 5.0323 15.5595C4.78138 16.4245 4.76135 17.3438 4.97433 18.2196C5.18731 19.0955 5.62535 19.8952 6.24192 20.5339C6.85848 21.1725 7.63054 21.6263 8.47608 21.8469C9.32163 22.0675 10.2091 22.0468 11.0441 21.7869C11.8792 21.527 12.6307 21.0376 13.2188 20.3708C13.807 19.7039 14.2097 18.8845 14.3843 17.9996H12.386Z" fill="#333441"/>
</svg>
