<svg width="24" height="24" viewBox="0 0 24 24" fill="none" xmlns="http://www.w3.org/2000/svg">
<path d="M3.86048 12V3H1.92969V12C1.92969 13.3261 2.43824 14.5979 3.34348 15.5355C4.24872 16.4732 5.47648 17 6.75668 17H12.5491V15H6.75668C5.98856 15 5.2519 14.6839 4.70876 14.1213C4.16562 13.5587 3.86048 12.7956 3.86048 12ZM22.0389 17.24C21.8505 16.897 21.5431 16.641 21.1792 16.524C20.8153 16.407 20.422 16.4378 20.0792 16.61L19.0269 17.11L15.7349 10.13C15.5756 9.79557 15.3295 9.51368 15.0244 9.31587C14.7192 9.11807 14.3668 9.01216 14.0068 9.01L10.6183 9V3H4.82588V11C4.82588 11.7956 5.13102 12.5587 5.67416 13.1213C6.2173 13.6839 6.95396 14 7.72207 14H14.4799L17.7719 21L21.3631 19.3C21.5409 19.2139 21.6999 19.0915 21.8308 18.9402C21.9617 18.7888 22.0617 18.6116 22.1248 18.4192C22.188 18.2268 22.2129 18.0231 22.1981 17.8205C22.1834 17.6179 22.1292 17.4204 22.0389 17.24Z" fill="#333441"/>
</svg>
