<svg width="24" height="24" viewBox="0 0 24 24" fill="none" xmlns="http://www.w3.org/2000/svg">
<path d="M15.1278 4H13.5156V2H9.65401V4H8.04179C7.70173 4.00158 7.37603 4.14221 7.13557 4.39129C6.8951 4.64037 6.75934 4.97775 6.75781 5.33V20.66C6.7573 21.0138 6.8921 21.3535 7.13273 21.6046C7.37336 21.8557 7.70022 21.9979 8.04179 22H15.1182C15.4597 22.0005 15.7876 21.8609 16.0301 21.6116C16.2725 21.3624 16.4098 21.0238 16.4118 20.67V5.33C16.4103 4.97775 16.2745 4.64037 16.034 4.39129C15.7936 4.14221 15.4679 4.00158 15.1278 4ZM10.6194 20V14.5H8.68861L12.5502 7V12.5H14.481L10.6194 20Z" fill="#333441"/>
</svg>
