<svg width="24" height="24" viewBox="0 0 24 24" fill="none" xmlns="http://www.w3.org/2000/svg">
<path d="M11.5831 6C12.0952 6 12.5863 5.78929 12.9484 5.41421C13.3105 5.03914 13.5139 4.53043 13.5139 4C13.5178 3.63597 13.4206 3.27846 13.2339 2.97L11.5831 0L9.93228 2.97C9.74563 3.27846 9.64845 3.63597 9.65232 4C9.65384 4.52995 9.85776 5.03773 10.2195 5.41247C10.5813 5.7872 11.0715 5.99842 11.5831 6ZM16.0239 15.99L14.991 14.92L13.9483 15.99C13.3122 16.6183 12.4669 16.9689 11.5879 16.9689C10.7089 16.9689 9.86369 16.6183 9.22754 15.99L8.19457 14.92L7.14228 15.99C6.83339 16.311 6.46622 16.5655 6.06194 16.7388C5.65766 16.9122 5.22426 17.0009 4.78671 17C4.11107 16.9987 3.45154 16.7861 2.89453 16.39V21C2.89453 21.2652 2.99624 21.5196 3.17729 21.7071C3.35834 21.8946 3.60389 22 3.85993 22H19.3063C19.5623 22 19.8079 21.8946 19.9889 21.7071C20.17 21.5196 20.2717 21.2652 20.2717 21V16.39C19.7147 16.7861 19.0552 16.9987 18.3795 17C17.942 17.0009 17.5086 16.9122 17.1043 16.7388C16.7 16.5655 16.3328 16.311 16.0239 15.99ZM17.3755 9H12.5485V7H10.6177V9H5.79073C5.02261 9 4.28595 9.31607 3.74281 9.87868C3.19967 10.4413 2.89453 11.2044 2.89453 12V13.54C2.8953 14.0596 3.0949 14.5577 3.44958 14.9251C3.80427 15.2925 4.28511 15.4992 4.78671 15.5C5.03428 15.502 5.27972 15.4526 5.50855 15.3547C5.73737 15.2568 5.94493 15.1124 6.11896 14.93L8.18491 12.8L10.2412 14.93C10.6015 15.2861 11.0803 15.4849 11.5783 15.4849C12.0763 15.4849 12.5551 15.2861 12.9154 14.93L14.9813 12.8L17.0376 14.93C17.2122 15.1116 17.4199 15.2555 17.6486 15.3534C17.8773 15.4512 18.1224 15.5011 18.3699 15.5C18.8715 15.4992 19.3523 15.2925 19.707 14.9251C20.0617 14.5577 20.2613 14.0596 20.262 13.54V12C20.2645 11.6062 20.1915 11.2158 20.0474 10.8513C19.9034 10.4868 19.691 10.1556 19.4226 9.87662C19.1542 9.59768 18.8351 9.37659 18.4837 9.22612C18.1324 9.07566 17.7557 8.9988 17.3755 9Z" fill="#333441"/>
</svg>
