<svg width="24" height="24" viewBox="0 0 24 24" fill="none" xmlns="http://www.w3.org/2000/svg">
<path d="M12.5491 2V10H20.2722C20.2722 7.87827 19.4586 5.84344 18.0102 4.34315C16.5618 2.84285 14.5974 2 12.5491 2ZM18.6504 15.89C19.702 14.4928 20.2729 12.7717 20.2722 11H6.21605L5.29893 9H1.92969V11H4.07287C4.07287 11 5.89747 15.07 6.11951 15.42C5.61096 15.7028 5.18082 16.1158 4.8701 16.6196C4.55938 17.1235 4.37844 17.7014 4.34453 18.2982C4.31062 18.895 4.42488 19.4909 4.67641 20.029C4.92794 20.5672 5.30835 21.0296 5.78137 21.3722C6.2544 21.7148 6.80426 21.9261 7.37853 21.9861C7.9528 22.0461 8.53234 21.9527 9.06188 21.7149C9.59142 21.477 10.0533 21.1026 10.4035 20.6273C10.7537 20.1521 10.9805 19.5918 11.0624 19H13.0704C13.1457 19.559 13.3504 20.0908 13.667 20.5502C13.9837 21.0095 14.4028 21.3827 14.8888 21.6379C15.3748 21.8932 15.9132 22.0229 16.458 22.016C17.0029 22.0091 17.538 21.8659 18.0179 21.5984C18.4977 21.331 18.908 20.9473 19.2137 20.4801C19.5194 20.013 19.7116 19.4761 19.7737 18.9154C19.8358 18.3546 19.7661 17.7867 19.5705 17.2599C19.3749 16.7331 19.0592 16.2631 18.6504 15.89ZM7.72207 20C7.43567 20 7.15569 19.912 6.91756 19.7472C6.67942 19.5824 6.49381 19.3481 6.38421 19.074C6.2746 18.7999 6.24593 18.4983 6.3018 18.2074C6.35768 17.9164 6.4956 17.6491 6.69812 17.4393C6.90064 17.2296 7.15866 17.0867 7.43957 17.0288C7.72047 16.9709 8.01163 17.0007 8.27624 17.1142C8.54084 17.2277 8.767 17.42 8.92612 17.6666C9.08524 17.9133 9.17017 18.2033 9.17017 18.5C9.17017 18.8978 9.0176 19.2794 8.74603 19.5607C8.47446 19.842 8.10613 20 7.72207 20ZM16.4107 20C16.1242 20 15.8443 19.912 15.6061 19.7472C15.368 19.5824 15.1824 19.3481 15.0728 19.074C14.9632 18.7999 14.9345 18.4983 14.9904 18.2074C15.0463 17.9164 15.1842 17.6491 15.3867 17.4393C15.5892 17.2296 15.8472 17.0867 16.1281 17.0288C16.409 16.9709 16.7002 17.0007 16.9648 17.1142C17.2294 17.2277 17.4556 17.42 17.6147 17.6666C17.7738 17.9133 17.8588 18.2033 17.8588 18.5C17.8588 18.8978 17.7062 19.2794 17.4346 19.5607C17.163 19.842 16.7947 20 16.4107 20Z" fill="#333441"/>
</svg>
