<svg width="24" height="24" viewBox="0 0 24 24" fill="none" xmlns="http://www.w3.org/2000/svg">
<path d="M11.5831 6C12.6495 6 13.5139 5.10457 13.5139 4C13.5139 2.89543 12.6495 2 11.5831 2C10.5168 2 9.65234 2.89543 9.65234 4C9.65234 5.10457 10.5168 6 11.5831 6Z" fill="#333441"/>
<path d="M15.338 8.11C15.0588 7.76465 14.7104 7.48644 14.317 7.29475C13.9235 7.10305 13.4944 7.00247 13.0596 7H10.6075C9.33 6.99393 8.10664 6.46488 7.2042 5.52823C6.30176 4.59157 5.79347 3.3233 5.79017 2H3.85938C3.8627 3.50682 4.33374 4.97259 5.20293 6.18085C6.07212 7.38911 7.29338 8.27581 8.68636 8.71V22H10.6172V16H12.548V22H14.4788V10.05L18.2921 14L19.6533 12.59L15.338 8.11Z" fill="#333441"/>
</svg>
