<svg width="24" height="24" viewBox="0 0 24 24" fill="none" xmlns="http://www.w3.org/2000/svg">
<path d="M15.9564 11.06L14.933 10L10.2219 14.88L8.17526 12.76L7.15194 13.82L10.2219 17L15.9564 11.06ZM18.3409 3H17.3755V1H15.4447V3H7.72152V1H5.79073V3H4.82533C4.57226 3.00013 4.32171 3.05202 4.08805 3.1527C3.8544 3.25338 3.64223 3.40086 3.46374 3.58668C3.28524 3.77251 3.14393 3.99301 3.0479 4.23554C2.95188 4.47808 2.90304 4.73787 2.90419 5L2.89453 19C2.89453 19.5304 3.09795 20.0391 3.46005 20.4142C3.82214 20.7893 4.31325 21 4.82533 21H18.3409C18.8525 20.9984 19.3427 20.7872 19.7045 20.4125C20.0663 20.0377 20.2702 19.5299 20.2717 19V5C20.2702 4.47005 20.0663 3.96227 19.7045 3.58753C19.3427 3.2128 18.8525 3.00158 18.3409 3ZM18.3409 19H4.82533V8H18.3409V19Z" fill="#333441"/>
</svg>
