<svg width="24" height="24" viewBox="0 0 24 24" fill="none" xmlns="http://www.w3.org/2000/svg">
<path d="M12.5508 3H5.79297V21H9.65456V15H12.5508C14.087 15 15.5603 14.3679 16.6466 13.2426C17.7329 12.1174 18.3431 10.5913 18.3431 9C18.3431 7.4087 17.7329 5.88258 16.6466 4.75736C15.5603 3.63214 14.087 3 12.5508 3ZM12.7438 11H9.65456V7H12.7438C13.2559 7 13.747 7.21071 14.1091 7.58579C14.4712 7.96086 14.6746 8.46957 14.6746 9C14.6746 9.53043 14.4712 10.0391 14.1091 10.4142C13.747 10.7893 13.2559 11 12.7438 11Z" fill="#333441"/>
</svg>
