<svg width="24" height="24" viewBox="0 0 24 24" fill="none" xmlns="http://www.w3.org/2000/svg">
<path d="M4.34318 12C5.67612 12 6.75668 10.8807 6.75668 9.5C6.75668 8.11929 5.67612 7 4.34318 7C3.01025 7 1.92969 8.11929 1.92969 9.5C1.92969 10.8807 3.01025 12 4.34318 12Z" fill="#333441"/>
<path d="M8.68693 8C10.0199 8 11.1004 6.88071 11.1004 5.5C11.1004 4.11929 10.0199 3 8.68693 3C7.354 3 6.27344 4.11929 6.27344 5.5C6.27344 6.88071 7.354 8 8.68693 8Z" fill="#333441"/>
<path d="M14.4799 8C15.8128 8 16.8934 6.88071 16.8934 5.5C16.8934 4.11929 15.8128 3 14.4799 3C13.147 3 12.0664 4.11929 12.0664 5.5C12.0664 6.88071 13.147 8 14.4799 8Z" fill="#333441"/>
<path d="M18.8237 12C20.1566 12 21.2371 10.8807 21.2371 9.5C21.2371 8.11929 20.1566 7 18.8237 7C17.4907 7 16.4102 8.11929 16.4102 9.5C16.4102 10.8807 17.4907 12 18.8237 12Z" fill="#333441"/>
<path d="M16.7401 14.8601C15.9002 13.8401 15.1955 12.9701 14.346 11.9501C13.9041 11.3644 13.3216 10.9092 12.6565 10.6301C12.553 10.5908 12.4464 10.5607 12.3379 10.5401C12.0883 10.5066 11.8365 10.4932 11.5849 10.5001C11.3297 10.4918 11.0744 10.5086 10.8223 10.5501C10.7138 10.5707 10.6072 10.6008 10.5037 10.6401C9.84007 10.9218 9.25808 11.3766 8.81423 11.9601C7.97433 12.9801 7.26959 13.8501 6.42004 14.8701C5.15537 16.1801 3.60108 17.6301 3.8907 19.6601C4.02199 20.2244 4.30171 20.7399 4.69879 21.1494C5.09587 21.559 5.59476 21.8465 6.14007 21.9801C6.84481 22.1301 9.09419 21.5401 11.4884 21.5401H11.6621C14.0563 21.5401 16.3057 22.1201 17.0105 21.9801C17.5551 21.8449 18.0531 21.5569 18.45 21.1476C18.8468 20.7383 19.127 20.2236 19.2598 19.6601C19.5591 17.6201 18.0048 16.1701 16.7401 14.8601Z" fill="#333441"/>
</svg>
