<svg width="24" height="24" viewBox="0 0 24 24" fill="none" xmlns="http://www.w3.org/2000/svg">
<path d="M16.614 8.99974L12.3856 2.43974C12.2953 2.30729 12.1751 2.19976 12.0354 2.12654C11.8957 2.05333 11.7408 2.01666 11.5843 2.01974C11.4267 2.01634 11.2708 2.05392 11.1308 2.12904C10.9908 2.20415 10.8713 2.31442 10.783 2.44974L6.5546 8.99974H1.93034C1.6743 8.99974 1.42875 9.1051 1.2477 9.29264C1.06666 9.48017 0.964944 9.73453 0.964944 9.99974C0.963554 10.0913 0.976597 10.1825 1.00356 10.2697L3.45567 19.5397C3.56756 19.9598 3.80954 20.3302 4.14442 20.594C4.4793 20.8578 4.88854 21.0003 5.30923 20.9997H17.8594C18.2809 20.999 18.6907 20.8562 19.0269 20.5927C19.3631 20.3293 19.6073 19.9597 19.7226 19.5397L22.1747 10.2697L22.2037 9.99974C22.2037 9.73453 22.102 9.48017 21.9209 9.29264C21.7399 9.1051 21.4943 8.99974 21.2383 8.99974H16.614ZM8.68813 8.99974L11.5843 4.59974L14.4805 8.99974H8.68813ZM11.5843 16.9997C11.2024 16.9997 10.8291 16.8824 10.5116 16.6627C10.1941 16.4429 9.94664 16.1306 9.8005 15.7651C9.65436 15.3997 9.61612 14.9975 9.69062 14.6096C9.76513 14.2216 9.94902 13.8652 10.219 13.5855C10.4891 13.3058 10.8331 13.1153 11.2076 13.0382C11.5822 12.961 11.9704 13.0006 12.3232 13.152C12.676 13.3034 12.9776 13.5597 13.1897 13.8886C13.4019 14.2175 13.5151 14.6042 13.5151 14.9997C13.5136 15.5297 13.3097 16.0375 12.9479 16.4122C12.5861 16.7869 12.0959 16.9982 11.5843 16.9997Z" fill="#333441"/>
</svg>
