<svg width="24" height="24" viewBox="0 0 24 24" fill="none" xmlns="http://www.w3.org/2000/svg">
<path d="M1.92969 16H16.4107V19H1.92969V16ZM19.7895 16H21.2376V19H19.7895V16ZM17.3761 16H18.8242V19H17.3761V16ZM18.1966 7.73C18.6539 7.26418 18.967 6.66786 19.0958 6.01704C19.2247 5.36623 19.1635 4.69041 18.9202 4.07574C18.6768 3.46107 18.2622 2.93538 17.7293 2.5657C17.1964 2.19602 16.5693 1.99908 15.928 2V3.5C16.1625 3.5 16.3947 3.54785 16.6114 3.64083C16.8281 3.7338 17.025 3.87007 17.1908 4.04186C17.3567 4.21364 17.4882 4.41759 17.578 4.64204C17.6677 4.86649 17.7139 5.10706 17.7139 5.35C17.7139 5.59295 17.6677 5.83352 17.578 6.05797C17.4882 6.28242 17.3567 6.48636 17.1908 6.65815C17.025 6.82994 16.8281 6.96621 16.6114 7.05918C16.3947 7.15215 16.1625 7.2 15.928 7.2V8.7C16.44 8.70273 16.9465 8.81038 17.4182 9.01675C17.89 9.22312 18.3176 9.52413 18.6766 9.90244C19.0355 10.2808 19.3186 10.7289 19.5097 11.221C19.7007 11.7132 19.7958 12.2396 19.7895 12.77V15H21.2376V12.76C21.2419 11.7095 20.9584 10.6793 20.4201 9.78897C19.8819 8.89864 19.1109 8.1847 18.1966 7.73ZM15.4742 10.2H13.9972C13.5094 10.1653 13.0529 9.939 12.7209 9.56724C12.3889 9.19548 12.2066 8.7064 12.2112 8.2C12.2134 7.96232 12.2618 7.72754 12.3536 7.50969C12.4454 7.29183 12.5786 7.09536 12.7453 6.93202C12.912 6.76868 13.1088 6.64181 13.3239 6.55899C13.5389 6.47618 13.7679 6.43911 13.9972 6.45V4.95C13.5725 4.95 13.1519 5.03665 12.7595 5.20501C12.3672 5.37336 12.0106 5.62012 11.7103 5.9312C11.41 6.24227 11.1718 6.61157 11.0093 7.01801C10.8467 7.42445 10.7631 7.86008 10.7631 8.3C10.7631 8.73993 10.8467 9.17555 11.0093 9.58199C11.1718 9.98843 11.41 10.3577 11.7103 10.6688C12.0106 10.9799 12.3672 11.2266 12.7595 11.395C13.1519 11.5634 13.5725 11.65 13.9972 11.65H15.4742C15.7323 11.6435 15.9889 11.6927 16.2276 11.7945C16.4664 11.8963 16.682 12.0484 16.8609 12.2412C17.0398 12.434 17.178 12.6633 17.2667 12.9145C17.3554 13.1656 17.3926 13.4331 17.3761 13.7V15H18.8242V13.36C18.8053 12.9244 18.7036 12.4969 18.5249 12.1021C18.3462 11.7073 18.094 11.3529 17.7828 11.0593C17.4715 10.7657 17.1074 10.5387 16.7112 10.3912C16.3151 10.2437 15.8947 10.1788 15.4742 10.2Z" fill="#333441"/>
</svg>
