<svg width="24" height="24" viewBox="0 0 24 24" fill="none" xmlns="http://www.w3.org/2000/svg">
<path d="M5.31138 22V14.5H3.86328V9C3.86481 8.47005 4.06872 7.96227 4.43049 7.58754C4.79225 7.21281 5.28247 7.00158 5.79408 7H8.69027C9.20188 7.00158 9.6921 7.21281 10.0539 7.58754C10.4156 7.96227 10.6195 8.47005 10.6211 9V14.5H9.17297V22H5.31138ZM17.3789 22V16H20.275L17.8229 8.37C17.6939 7.97163 17.4475 7.62519 17.1185 7.37944C16.7895 7.13368 16.3943 7.00098 15.9887 7H15.8728C15.4669 6.99962 15.0711 7.13179 14.7418 7.37774C14.4125 7.62369 14.1665 7.97089 14.0386 8.37L11.5865 16H14.4827V22H17.3789ZM7.24217 6C7.62405 6 7.99735 5.8827 8.31487 5.66294C8.63238 5.44318 8.87986 5.13082 9.026 4.76537C9.17213 4.39992 9.21037 3.99778 9.13587 3.60982C9.06137 3.22186 8.87748 2.86549 8.60745 2.58579C8.33743 2.30608 7.99339 2.1156 7.61885 2.03843C7.24432 1.96126 6.8561 2.00087 6.50329 2.15224C6.15048 2.30362 5.84893 2.55996 5.63678 2.88886C5.42462 3.21776 5.31138 3.60444 5.31138 4C5.31049 4.2629 5.35982 4.52339 5.45653 4.76646C5.55325 5.00953 5.69544 5.23038 5.8749 5.41628C6.05437 5.60218 6.26758 5.74946 6.50224 5.84964C6.73689 5.94983 6.98837 6.00093 7.24217 6ZM15.9308 6C16.3126 6 16.6859 5.8827 17.0034 5.66294C17.321 5.44318 17.5684 5.13082 17.7146 4.76537C17.8607 4.39992 17.899 3.99778 17.8245 3.60982C17.75 3.22186 17.5661 2.86549 17.296 2.58579C17.026 2.30608 16.682 2.1156 16.3074 2.03843C15.9329 1.96126 15.5447 2.00087 15.1919 2.15224C14.8391 2.30362 14.5375 2.55996 14.3254 2.88886C14.1132 3.21776 14 3.60444 14 4C13.9991 4.2629 14.0484 4.52339 14.1451 4.76646C14.2418 5.00953 14.384 5.23038 14.5635 5.41628C14.743 5.60218 14.9562 5.74946 15.1908 5.84964C15.4255 5.94983 15.6769 6.00093 15.9308 6Z" fill="#333441"/>
</svg>
