<svg width="24" height="24" viewBox="0 0 24 24" fill="none" xmlns="http://www.w3.org/2000/svg">
<path d="M0.964844 8.99962L2.89564 10.9996C5.20013 8.61294 8.32546 7.27215 11.5842 7.27215C14.843 7.27215 17.9683 8.61294 20.2728 10.9996L22.2036 8.99962C19.386 6.0846 15.5665 4.44727 11.5842 4.44727C7.60194 4.44727 3.78249 6.0846 0.964844 8.99962ZM8.68803 16.9996L11.5842 19.9996L14.4804 16.9996C14.1004 16.605 13.649 16.2919 13.1521 16.0782C12.6551 15.8646 12.1223 15.7546 11.5842 15.7546C11.0461 15.7546 10.5134 15.8646 10.0164 16.0782C9.5194 16.2919 9.068 16.605 8.68803 16.9996ZM4.82644 12.9996L6.75723 14.9996C8.0378 13.6743 9.77398 12.9298 11.5842 12.9298C13.3945 12.9298 15.1306 13.6743 16.4112 14.9996L18.342 12.9996C16.5484 11.1457 14.1181 10.1045 11.5842 10.1045C9.05038 10.1045 6.62003 11.1457 4.82644 12.9996Z" fill="#333441"/>
</svg>
