<svg width="136" height="45" viewBox="0 0 136 45" fill="none" xmlns="http://www.w3.org/2000/svg">
<g filter="url(#filter0_d_644_3871)">
<path d="M127.446 36.9395H8.48467C7.29602 36.9371 6.15676 36.4761 5.31626 35.6575C4.47575 34.8389 4.00247 33.7293 4 32.5715L4 4.36799C4 3.20953 4.47249 2.09851 5.31353 1.27936C6.15457 0.4602 7.29526 2.81931e-06 8.48467 2.81931e-06H127.446C128.642 -0.00131062 129.791 0.456343 130.643 1.27387C131.496 2.0914 131.983 3.203 132 4.36799V32.5679C131.981 33.7324 131.493 34.843 130.641 35.6602C129.79 36.4774 128.642 36.9355 127.446 36.9359V36.9395Z" fill="#A6A6A6"/>
<path d="M131.078 32.5684C131.078 33.0332 130.984 33.4934 130.801 33.9228C130.618 34.3522 130.35 34.7423 130.013 35.0708C129.675 35.3993 129.274 35.6598 128.833 35.8373C128.392 36.0149 127.92 36.106 127.442 36.1055H8.48364C8.00588 36.1065 7.5326 36.0157 7.09086 35.8385C6.64913 35.6612 6.24759 35.4009 5.90919 35.0724C5.5708 34.7439 5.30218 34.3536 5.1187 33.924C4.93521 33.4944 4.84046 33.0337 4.83984 32.5684V4.35845C4.84306 3.41925 5.22838 2.51959 5.91137 1.85658C6.59437 1.19357 7.51935 0.821284 8.48364 0.821289H127.446C128.41 0.822254 129.334 1.19585 130.015 1.85997C130.696 2.52409 131.078 3.42439 131.078 4.363V32.5729V32.5684Z" fill="black"/>
<path d="M32.5644 18.2702C32.5762 17.3674 32.8222 16.4821 33.2796 15.6968C33.737 14.9114 34.3909 14.2515 35.1805 13.7784C34.6785 13.0806 34.0165 12.5063 33.247 12.1012C32.4775 11.696 31.6215 11.4711 30.7472 11.4443C28.8786 11.2532 27.0735 12.5308 26.1233 12.5308C25.1544 12.5308 23.6941 11.4625 22.1142 11.4934C21.0948 11.5253 20.1013 11.814 19.2305 12.3312C18.3598 12.8484 17.6414 13.5765 17.1456 14.4445C14.9967 18.0672 16.599 23.3916 18.6582 26.32C19.6859 27.7542 20.8912 29.3558 22.4655 29.2993C24.0062 29.2375 24.5817 28.3429 26.441 28.3429C28.2834 28.3429 28.8235 29.2993 30.4295 29.2639C32.0833 29.2384 33.1241 27.8233 34.1182 26.3764C34.858 25.3547 35.4272 24.2254 35.8046 23.0304C34.8445 22.6341 34.0254 21.9715 33.4493 21.125C32.8731 20.2786 32.5654 19.2857 32.5644 18.2702Z" fill="white"/>
<path d="M29.5293 9.5177C30.431 8.46384 30.8751 7.10901 30.7673 5.74121C29.3914 5.88337 28.1207 6.52426 27.2076 7.53664C26.7603 8.03211 26.4178 8.60868 26.1998 9.2333C25.9818 9.85792 25.8924 10.5183 25.9369 11.1766C26.6255 11.1828 27.3066 11.0367 27.9289 10.7494C28.5511 10.462 29.0984 10.0409 29.5293 9.5177Z" fill="white"/>
<path d="M54.863 29.0926H52.7141L51.535 25.4826H47.4306L46.3094 29.0926H44.2109L48.2724 16.8076H50.781L54.863 29.0926ZM51.1753 23.9693L50.1083 20.7606C49.9955 20.4306 49.7835 19.6589 49.472 18.4456H49.4337C49.3091 18.9686 49.1095 19.7402 48.8348 20.7606L47.7875 23.9693H51.1753Z" fill="white"/>
<path d="M65.3107 24.5534C65.384 25.8577 64.9341 27.1387 64.0559 28.126C63.7034 28.5033 63.2721 28.8028 62.7908 29.0042C62.3096 29.2055 61.7897 29.3042 61.2661 29.2935C60.7586 29.3335 60.2496 29.2375 59.7942 29.0158C59.3388 28.7941 58.9544 28.4552 58.6827 28.0359H58.6444V32.7042H56.6216V23.1492C56.6216 22.2016 56.5967 21.2292 56.5469 20.2318H58.3221L58.4351 21.6368H58.4734C58.7798 21.1801 59.1915 20.7995 59.6756 20.5251C60.1597 20.2507 60.703 20.0903 61.262 20.0565C61.8211 20.0228 62.3805 20.1166 62.8957 20.3306C63.4109 20.5446 63.8677 20.8729 64.2297 21.2892C64.9835 22.2141 65.3675 23.3738 65.3107 24.5534ZM63.2552 24.6253C63.287 23.871 63.0777 23.1258 62.6563 22.4922C62.4612 22.215 62.1981 21.9897 61.8908 21.8368C61.5836 21.684 61.2419 21.6083 60.897 21.6168C60.4004 21.6168 59.9198 21.7879 59.5404 22.1C59.1351 22.4222 58.8546 22.8693 58.7453 23.3676C58.69 23.5636 58.6586 23.7652 58.6519 23.9682V25.4461C58.6351 26.0458 58.8528 26.6293 59.261 27.0786C59.4578 27.2965 59.7017 27.4693 59.9752 27.5845C60.2487 27.6996 60.545 27.7544 60.8428 27.7447C61.1887 27.7578 61.5325 27.6862 61.8426 27.5365C62.1527 27.3867 62.4193 27.1636 62.618 26.8875C63.0702 26.218 63.2918 25.4256 63.2505 24.6253H63.2552Z" fill="white"/>
<path d="M75.7766 24.5534C75.8501 25.8579 75.3998 27.139 74.5209 28.126C74.1687 28.5034 73.7375 28.8029 73.2564 29.0043C72.7753 29.2057 72.2555 29.3043 71.732 29.2935C71.2247 29.3336 70.7158 29.2375 70.2606 29.0158C69.8053 28.7941 69.4211 28.4552 69.1496 28.0359H69.1094V32.7042H67.0904V23.1492C67.0904 22.2016 67.0655 21.2291 67.0156 20.2318H68.7908L68.9039 21.6368H68.9422C69.2487 21.1801 69.6604 20.7994 70.1446 20.5251C70.6288 20.2507 71.1721 20.0903 71.7312 20.0565C72.2904 20.0228 72.8498 20.1166 73.3651 20.3306C73.8804 20.5446 74.3373 20.8729 74.6994 21.2892C75.4507 22.2152 75.8332 23.3744 75.7766 24.5534ZM73.7211 24.6253C73.7526 23.8709 73.543 23.1257 73.1213 22.4922C72.9265 22.215 72.6636 21.9896 72.3564 21.8367C72.0493 21.6838 71.7078 21.6082 71.363 21.6168C70.8661 21.6168 70.3852 21.7879 70.0054 22.1C69.6003 22.4222 69.3202 22.8694 69.2112 23.3676C69.1564 23.5637 69.125 23.7652 69.1178 23.9682V25.4461C69.1012 26.0453 69.3178 26.6285 69.7242 27.0786C69.9214 27.2965 70.1656 27.4693 70.4394 27.5844C70.7132 27.6996 71.0098 27.7543 71.3078 27.7447C71.6537 27.7578 71.9975 27.6862 72.3076 27.5365C72.6177 27.3867 72.8843 27.1636 73.083 26.8875C73.5359 26.2182 73.7581 25.4258 73.7174 24.6253H73.7211Z" fill="white"/>
<path d="M87.4761 25.6473C87.4918 26.126 87.3995 26.6022 87.2058 27.0425C87.0121 27.4827 86.7216 27.8762 86.3549 28.1953C85.3886 28.9612 84.1621 29.3454 82.9185 29.2718C81.776 29.3247 80.6416 29.0592 79.6484 28.5065L80.1156 26.8685C80.9959 27.3898 82.0079 27.6617 83.0381 27.6538C83.6715 27.6899 84.2983 27.5125 84.8133 27.1515C85.0214 26.9927 85.1882 26.7883 85.3001 26.5549C85.4119 26.3215 85.4657 26.0658 85.457 25.8083C85.4626 25.5747 85.4189 25.3424 85.3288 25.1258C85.2386 24.9092 85.1039 24.7129 84.9329 24.5489C84.4261 24.1187 83.8335 23.7953 83.1923 23.5989C80.9829 22.7963 79.8786 21.6214 79.8792 20.0745C79.8669 19.6019 79.965 19.1327 80.1662 18.7025C80.3674 18.2722 80.6664 17.8922 81.0406 17.5911C81.9135 16.9125 83.0111 16.5681 84.1266 16.6228C85.1155 16.5891 86.0981 16.7892 86.9902 17.2061L86.4848 18.8123C85.7418 18.4278 84.9108 18.2334 84.0696 18.2472C83.469 18.212 82.8762 18.3937 82.4046 18.7577C82.243 18.8967 82.1141 19.0681 82.0268 19.2602C81.9396 19.4524 81.896 19.6606 81.8992 19.8706C81.8946 20.101 81.9444 20.3293 82.0449 20.5379C82.1453 20.7465 82.2937 20.9298 82.4785 21.0736C83.0347 21.4829 83.6545 21.803 84.3144 22.0218C85.2205 22.3333 86.0405 22.8447 86.7099 23.5161C87.2294 24.1084 87.5027 24.8686 87.4761 25.6473Z" fill="white"/>
<path d="M94.1586 21.7089H91.9302V26.0159C91.9302 27.1079 92.3233 27.6539 93.1093 27.6539C93.4114 27.6605 93.713 27.6299 94.0072 27.5629L94.0633 29.0581C93.5561 29.2192 93.024 29.2928 92.4908 29.2756C92.1454 29.2935 91.7999 29.2394 91.4777 29.1168C91.1554 28.9943 90.8638 28.8061 90.6222 28.5648C90.1053 27.8756 89.8653 27.0259 89.9476 26.1761V21.7071H88.6172V20.2293H89.9448V18.6067L91.9302 18.0234V20.2293H94.1586V21.7089Z" fill="white"/>
<path d="M104.21 24.5894C104.259 25.8151 103.831 27.0136 103.011 27.9446C102.59 28.3925 102.073 28.7454 101.497 28.9785C100.921 29.2116 100.3 29.3194 99.6772 29.2941C99.0805 29.3198 98.4853 29.2171 97.9338 28.9935C97.3824 28.7698 96.8883 28.4307 96.4866 28.0001C95.6792 27.0988 95.254 25.9322 95.2972 24.7369C95.2447 23.5011 95.6827 22.2931 96.5202 21.3635C96.9399 20.9241 97.4529 20.579 98.0234 20.3522C98.594 20.1254 99.2084 20.0224 99.8239 20.0504C100.425 20.0264 101.024 20.1298 101.58 20.3533C102.136 20.5769 102.635 20.9154 103.044 21.3453C103.843 22.2424 104.26 23.4028 104.21 24.5894ZM102.112 24.6531C102.134 23.9168 101.947 23.1889 101.57 22.5501C101.4 22.2256 101.14 21.9542 100.819 21.7667C100.498 21.5793 100.13 21.4834 99.7557 21.49C99.3758 21.4797 99.0005 21.5736 98.6727 21.7611C98.345 21.9485 98.0779 22.222 97.902 22.5501C97.5225 23.201 97.3349 23.9414 97.3601 24.6895C97.3377 25.4256 97.5253 26.1532 97.902 26.7916C98.0795 27.1137 98.3437 27.3826 98.6663 27.5695C98.9888 27.7564 99.3575 27.8541 99.7328 27.8522C100.108 27.8504 100.476 27.7489 100.796 27.5589C101.117 27.3688 101.378 27.0973 101.552 26.7734C101.938 26.131 102.131 25.3968 102.112 24.6531Z" fill="white"/>
<path d="M110.783 21.9636C110.572 21.9265 110.359 21.9082 110.146 21.909C109.825 21.8946 109.506 21.959 109.218 22.0962C108.93 22.2335 108.682 22.4391 108.497 22.6943C108.144 23.2112 107.967 23.8236 107.992 24.4442V29.0943H105.971L105.99 23.0237C105.99 22.0021 105.965 21.0721 105.914 20.2337H107.675L107.749 21.929H107.805C107.996 21.3759 108.347 20.8883 108.816 20.5249C109.238 20.2172 109.75 20.0506 110.277 20.0498C110.446 20.0491 110.615 20.0613 110.783 20.0862V21.9636Z" fill="white"/>
<path d="M119.822 24.2441C119.827 24.5433 119.802 24.8423 119.748 25.1368H113.683C113.67 25.5137 113.742 25.8888 113.894 26.2355C114.046 26.5823 114.275 26.8922 114.563 27.1433C115.128 27.5737 115.831 27.7935 116.547 27.7631C117.384 27.7737 118.217 27.6314 119 27.3435L119.317 28.7085C118.35 29.0932 117.311 29.2791 116.267 29.2545C115.657 29.2879 115.047 29.1979 114.475 28.9903C113.903 28.7826 113.382 28.4617 112.943 28.0479C112.531 27.6106 112.211 27.0976 112.004 26.5389C111.797 25.9803 111.706 25.387 111.736 24.7937C111.691 23.5869 112.088 22.4038 112.857 21.4568C113.235 20.9939 113.72 20.6241 114.272 20.3772C114.824 20.1303 115.427 20.0132 116.034 20.0354C116.614 20.004 117.192 20.1182 117.714 20.3671C118.235 20.616 118.683 20.9912 119.013 21.4568C119.571 22.2824 119.854 23.2559 119.822 24.2441ZM117.894 23.7336C117.921 23.2024 117.784 22.6755 117.502 22.2203C117.335 21.9544 117.097 21.7378 116.813 21.5935C116.529 21.4492 116.211 21.3828 115.891 21.4013C115.576 21.3959 115.264 21.4663 114.983 21.6063C114.703 21.7463 114.462 21.9516 114.282 22.2039C113.938 22.6488 113.73 23.18 113.684 23.7354H117.895L117.894 23.7336Z" fill="white"/>
<path d="M50.5059 9.24214C50.54 9.69891 50.4675 10.1573 50.2937 10.5828C50.1199 11.0084 49.8494 11.39 49.5024 11.6991C48.7434 12.2494 47.8082 12.519 46.8639 12.4599C46.3783 12.4641 45.8929 12.44 45.4102 12.388V6.44663C45.9763 6.3603 46.5487 6.31831 47.1218 6.32105C47.9985 6.25876 48.8692 6.50337 49.5772 7.01083C49.8933 7.29154 50.1408 7.63768 50.3015 8.02382C50.4623 8.40996 50.5321 8.82627 50.5059 9.24214ZM49.4585 9.26853C49.479 8.97405 49.4386 8.67857 49.3397 8.39956C49.2409 8.12055 49.0856 7.86369 48.883 7.64419C48.6563 7.44447 48.3904 7.29152 48.1013 7.19455C47.8123 7.09759 47.5061 7.05862 47.2012 7.07999C46.9329 7.07598 46.6648 7.09701 46.4005 7.14278V11.6573C46.6233 11.68 46.8474 11.6888 47.0714 11.6837C47.3927 11.7037 47.7149 11.6591 48.0178 11.5528C48.3208 11.4465 48.5981 11.2808 48.8325 11.0658C49.053 10.821 49.2217 10.5362 49.329 10.2278C49.4362 9.91942 49.4799 9.59343 49.4576 9.26853H49.4585Z" fill="white"/>
<path d="M56.0599 10.1925C56.0841 10.7945 55.8739 11.3832 55.4712 11.8405C55.2644 12.0607 55.0106 12.2342 54.7277 12.3488C54.4448 12.4634 54.1396 12.5163 53.8334 12.5039C53.5399 12.5166 53.2472 12.4661 52.976 12.356C52.7049 12.2459 52.462 12.0789 52.2647 11.8669C51.8688 11.4237 51.6604 10.8506 51.6817 10.2635C51.6563 9.65637 51.8718 9.06301 52.2834 8.60639C52.4898 8.39088 52.7419 8.22165 53.0221 8.1104C53.3023 7.99916 53.604 7.94856 53.9063 7.96211C54.2017 7.9505 54.4962 8.00144 54.7694 8.11141C55.0427 8.22138 55.2882 8.38778 55.489 8.59911C55.8798 9.04054 56.0839 9.6101 56.0599 10.1925ZM55.0321 10.2244C55.0426 9.86249 54.9505 9.5048 54.7658 9.19061C54.6822 9.03125 54.5543 8.89797 54.3968 8.80595C54.2392 8.71392 54.0582 8.66685 53.8745 8.67009C53.6879 8.66505 53.5035 8.71117 53.3425 8.8032C53.1814 8.89523 53.0501 9.02946 52.9636 9.19061C52.7771 9.51037 52.6849 9.8741 52.6973 10.2417C52.6868 10.6035 52.7789 10.9612 52.9636 11.2754C53.0499 11.4347 53.1798 11.5677 53.339 11.6596C53.4981 11.7514 53.6802 11.7986 53.8652 11.7959C54.0497 11.7971 54.2309 11.748 54.3884 11.6543C54.5459 11.5606 54.6734 11.4259 54.7565 11.2654C54.9456 10.9497 55.0401 10.5888 55.0293 10.2235L55.0321 10.2244Z" fill="white"/>
<path d="M63.5108 8.05078L62.1094 12.4042H61.2068L60.6276 10.5141C60.4815 10.0516 60.3599 9.582 60.2632 9.10729H60.2454C60.1596 9.58389 60.0394 10.054 59.8857 10.5141L59.2709 12.4015H58.3507L57.0352 8.05078H58.0564L58.5618 10.1201C58.6864 10.6097 58.7876 11.0753 58.8655 11.517H58.8832C58.9573 11.153 59.0804 10.6904 59.2523 10.1292L59.8867 8.05169H60.6967L61.304 10.0855C61.451 10.5812 61.5706 11.0589 61.6628 11.5188H61.6899C61.7648 11.0361 61.8661 10.5577 61.9935 10.0855L62.5354 8.05169H63.5108V8.05078Z" fill="white"/>
<path d="M68.6605 12.4014H67.6711V9.90801C67.6711 9.13997 67.3708 8.75596 66.7704 8.75596C66.6339 8.75207 66.4984 8.77858 66.374 8.83346C66.2497 8.88834 66.1398 8.97014 66.0529 9.07263C65.8693 9.27983 65.7696 9.54516 65.7726 9.81883V12.4014H64.7747V9.29558C64.7747 8.91338 64.7626 8.49812 64.7383 8.0498H65.6156L65.6623 8.73048H65.6894C65.8106 8.51437 65.9881 8.33324 66.2042 8.20541C66.4746 8.04252 66.7869 7.95765 67.1049 7.96062C67.2965 7.95488 67.4873 7.98681 67.666 8.05451C67.8447 8.12221 68.0075 8.22429 68.1448 8.35465C68.3275 8.54783 68.4675 8.77557 68.5561 9.0237C68.6447 9.27182 68.6799 9.53504 68.6596 9.79699L68.6605 12.4014Z" fill="white"/>
<path d="M71.3996 12.4046H70.4102V6.05371H71.3996V12.4046Z" fill="white"/>
<path d="M77.2513 10.1925C77.2755 10.7945 77.0653 11.3832 76.6626 11.8405C76.4557 12.0606 76.202 12.234 75.9191 12.3486C75.6361 12.4632 75.3309 12.5162 75.0248 12.5039C74.7313 12.5168 74.4385 12.4664 74.1673 12.3563C73.8961 12.2461 73.6533 12.079 73.4561 11.8669C73.0602 11.4237 72.8518 10.8506 72.8731 10.2635C72.8478 9.65635 73.0632 9.06299 73.4748 8.60637C73.6811 8.39093 73.933 8.22174 74.213 8.11049C74.4931 7.99925 74.7946 7.94861 75.0967 7.96209C75.3923 7.95047 75.6869 8.0014 75.9603 8.11137C76.2337 8.22134 76.4794 8.38773 76.6804 8.59909C77.0712 9.04052 77.2753 9.61007 77.2513 10.1925ZM76.2235 10.2243C76.234 9.86247 76.1419 9.50478 75.9573 9.19059C75.8738 9.0313 75.7461 8.89806 75.5887 8.80603C75.4312 8.714 75.2504 8.66689 75.0669 8.67007C74.8802 8.66482 74.6957 8.71085 74.5346 8.8029C74.3735 8.89495 74.2423 9.0293 74.1559 9.19059C73.9694 9.51035 73.8773 9.87408 73.8896 10.2416C73.8791 10.6035 73.9713 10.9612 74.1559 11.2754C74.2423 11.4347 74.3722 11.5677 74.5313 11.6595C74.6904 11.7514 74.8725 11.7986 75.0575 11.7959C75.2419 11.797 75.423 11.7479 75.5803 11.6542C75.7376 11.5604 75.8649 11.4258 75.9479 11.2654C76.1371 10.9498 76.2313 10.5887 76.2198 10.2234L76.2235 10.2243Z" fill="white"/>
<path d="M82.0586 12.4011H81.1664L81.0925 11.8997H81.0654C80.9151 12.097 80.7171 12.2552 80.4889 12.3599C80.2607 12.4647 80.0094 12.5129 79.7574 12.5003C79.5685 12.508 79.38 12.4769 79.2042 12.409C79.0284 12.3411 78.8693 12.238 78.7372 12.1062C78.6218 11.9882 78.5316 11.8491 78.4716 11.697C78.4117 11.5449 78.3832 11.3828 78.3877 11.2199C78.3781 10.9754 78.4369 10.7329 78.5576 10.5183C78.6784 10.3037 78.8567 10.1251 79.0735 10.0014C79.6632 9.68974 80.3314 9.54683 81.001 9.58919V9.5082C81.001 8.9349 80.6917 8.64825 80.0732 8.64825C79.6606 8.64062 79.2551 8.75276 78.9081 8.97039L78.7063 8.33339C79.1711 8.0706 79.7024 7.94037 80.2395 7.95756C81.4074 7.95756 81.992 8.55786 81.9932 9.75845V11.3619C81.9877 11.7094 82.0096 12.0568 82.0586 12.4011ZM81.0309 10.905V10.2335C79.9346 10.2153 79.3865 10.5077 79.3865 11.1107C79.3785 11.2038 79.3911 11.2976 79.4233 11.3856C79.4555 11.4737 79.5067 11.554 79.5734 11.6212C79.7069 11.7366 79.8808 11.7975 80.0592 11.7914C80.2788 11.7909 80.4921 11.7202 80.6665 11.5903C80.7792 11.5132 80.871 11.4105 80.9338 11.2911C80.9966 11.1717 81.0287 11.0392 81.0271 10.905H81.0309Z" fill="white"/>
<path d="M87.7063 12.4046H86.8243L86.7776 11.7057H86.7505C86.6193 11.9622 86.4129 12.175 86.1574 12.317C85.9019 12.4591 85.6089 12.5241 85.3154 12.5038C85.058 12.5077 84.8031 12.4541 84.5703 12.347C84.3375 12.2398 84.1331 12.0821 83.9728 11.8859C83.6027 11.4314 83.4136 10.862 83.4403 10.2825C83.4108 9.66222 83.617 9.05314 84.0195 8.57167C84.1894 8.37746 84.4011 8.22212 84.6396 8.11673C84.8782 8.01134 85.1376 7.9585 85.3995 7.96197C85.6449 7.93797 85.8924 7.98041 86.1146 8.08462C86.3368 8.18882 86.5252 8.35075 86.659 8.55256H86.6776V6.05371H87.6727V11.2316C87.6714 11.6557 87.6826 12.0466 87.7063 12.4046ZM86.6786 10.5691V9.84112C86.6808 9.73885 86.6717 9.63664 86.6515 9.53627C86.5983 9.30876 86.4724 9.10356 86.2918 8.95023C86.1086 8.79294 85.8716 8.7082 85.6275 8.71272C85.4563 8.70714 85.2865 8.74365 85.1337 8.81888C84.9808 8.89411 84.8499 9.00563 84.753 9.14315C84.5295 9.46828 84.4179 9.85421 84.4344 10.2452C84.4168 10.6176 84.524 10.9856 84.7399 11.2935C84.8369 11.4295 84.9671 11.5399 85.1188 11.6149C85.2704 11.6899 85.4388 11.727 85.6088 11.723C85.7594 11.7276 85.9089 11.6975 86.0452 11.6352C86.1816 11.5729 86.301 11.4801 86.3936 11.3645C86.5843 11.1414 86.6849 10.8583 86.6767 10.5682L86.6786 10.5691Z" fill="white"/>
<path d="M96.2044 10.1925C96.2287 10.7945 96.0184 11.3832 95.6158 11.8405C95.409 12.0608 95.1552 12.2343 94.8723 12.3489C94.5894 12.4635 94.2841 12.5164 93.9779 12.5039C93.6845 12.5164 93.3918 12.4659 93.1207 12.3558C92.8496 12.2457 92.6067 12.0788 92.4092 11.8669C92.0133 11.4237 91.8049 10.8506 91.8262 10.2635C91.8009 9.65639 92.0163 9.06304 92.4279 8.60641C92.6345 8.39084 92.8867 8.22156 93.1671 8.11032C93.4475 7.99907 93.7493 7.94851 94.0517 7.96213C94.347 7.95053 94.6414 8.00148 94.9145 8.11146C95.1875 8.22143 95.4329 8.38782 95.6335 8.59913C96.0244 9.04056 96.2284 9.61012 96.2044 10.1925ZM95.1767 10.2244C95.1871 9.86251 95.095 9.50483 94.9104 9.19063C94.8265 9.03127 94.6984 8.89802 94.5407 8.806C94.383 8.71399 94.2019 8.66691 94.0181 8.67011C93.8313 8.66512 93.6469 8.71125 93.4857 8.80326C93.3245 8.89527 93.193 9.02948 93.1062 9.19063C92.9197 9.51039 92.8276 9.87412 92.8399 10.2417C92.8296 10.6032 92.9218 10.9606 93.1062 11.2745C93.1936 11.4327 93.3234 11.5647 93.4819 11.6564C93.6404 11.7481 93.8216 11.7961 94.006 11.7952C94.1903 11.7942 94.371 11.7444 94.5285 11.6511C94.686 11.5578 94.8145 11.4245 94.9001 11.2654C95.0894 10.9498 95.1845 10.5889 95.1748 10.2235L95.1767 10.2244Z" fill="white"/>
<path d="M101.549 12.4004H100.556V9.90702C100.556 9.13898 100.256 8.75496 99.6547 8.75496C99.5183 8.75095 99.3828 8.7774 99.2586 8.8323C99.1344 8.88719 99.0247 8.96907 98.938 9.07164C98.7541 9.27862 98.6543 9.54409 98.6577 9.81784V12.4004H97.6683V9.29459C97.6683 8.91239 97.6565 8.49713 97.6328 8.04881H98.5055L98.5522 8.72948H98.5793C98.701 8.51376 98.8784 8.33275 99.0941 8.20441C99.3648 8.04137 99.6774 7.95648 99.9957 7.95963C100.187 7.95396 100.378 7.98593 100.556 8.05362C100.735 8.12132 100.898 8.22337 101.035 8.35365C101.218 8.54669 101.358 8.7744 101.446 9.02257C101.535 9.27074 101.57 9.53403 101.549 9.796V12.4004Z" fill="white"/>
<path d="M108.234 8.77685H107.14V10.8917C107.14 11.4295 107.335 11.6979 107.719 11.6979C107.868 11.7012 108.017 11.6859 108.162 11.6524L108.188 12.3868C107.939 12.4667 107.678 12.5034 107.416 12.4951C107.246 12.5043 107.076 12.4779 106.918 12.4176C106.759 12.3573 106.616 12.2646 106.497 12.1457C106.242 11.8074 106.124 11.3895 106.166 10.9718V8.77685H105.512V8.04885H106.166V7.25442L107.139 6.96777V8.05067H108.233V8.77867L108.234 8.77685Z" fill="white"/>
<path d="M113.495 12.4046H112.5V9.92939C112.5 9.14922 112.2 8.75883 111.601 8.75822C111.387 8.75082 111.177 8.81382 111.005 8.93703C110.833 9.06024 110.709 9.23644 110.652 9.43708C110.619 9.55044 110.604 9.66784 110.606 9.78561V12.4037H109.613V6.05371H110.606V8.67723H110.625C110.763 8.45179 110.96 8.26646 111.196 8.14063C111.432 8.0148 111.699 7.9531 111.968 7.96197C112.156 7.95671 112.344 7.98894 112.519 8.05669C112.694 8.12444 112.853 8.22629 112.986 8.356C113.166 8.55372 113.303 8.78434 113.39 9.03436C113.476 9.28438 113.511 9.54876 113.492 9.812V12.4009L113.495 12.4046Z" fill="white"/>
<path d="M118.923 10.0217C118.925 10.1687 118.912 10.3155 118.885 10.4603H115.905C115.899 10.6452 115.935 10.8292 116.009 10.9994C116.084 11.1696 116.196 11.3219 116.337 11.4458C116.614 11.6573 116.96 11.7654 117.312 11.7507C117.724 11.7561 118.132 11.6863 118.517 11.545L118.672 12.2184C118.196 12.4087 117.686 12.5017 117.172 12.4914C116.872 12.5074 116.573 12.4627 116.292 12.3601C116.011 12.2575 115.755 12.0992 115.541 11.8953C115.338 11.6806 115.181 11.4286 115.079 11.1541C114.977 10.8795 114.933 10.588 114.948 10.2965C114.926 9.70388 115.122 9.12309 115.5 8.65848C115.686 8.43079 115.925 8.24893 116.196 8.12767C116.467 8.0064 116.764 7.94914 117.063 7.96052C117.347 7.94507 117.631 8.00116 117.887 8.12338C118.143 8.24561 118.362 8.42988 118.524 8.65848C118.799 9.06133 118.939 9.53789 118.923 10.0217ZM117.975 9.77141C117.988 9.5104 117.921 9.25136 117.782 9.02794C117.7 8.89735 117.583 8.79088 117.444 8.71988C117.305 8.64889 117.149 8.61603 116.992 8.62481C116.837 8.62228 116.684 8.6569 116.546 8.72562C116.408 8.79434 116.29 8.89504 116.201 9.01884C116.033 9.2379 115.93 9.49861 115.906 9.77141H117.975Z" fill="white"/>
</g>
<defs>
<filter id="filter0_d_644_3871" x="0" y="0" width="136" height="44.9395" filterUnits="userSpaceOnUse" color-interpolation-filters="sRGB">
<feFlood flood-opacity="0" result="BackgroundImageFix"/>
<feColorMatrix in="SourceAlpha" type="matrix" values="0 0 0 0 0 0 0 0 0 0 0 0 0 0 0 0 0 0 127 0" result="hardAlpha"/>
<feOffset dy="4"/>
<feGaussianBlur stdDeviation="2"/>
<feComposite in2="hardAlpha" operator="out"/>
<feColorMatrix type="matrix" values="0 0 0 0 0 0 0 0 0 0 0 0 0 0 0 0 0 0 0.5 0"/>
<feBlend mode="normal" in2="BackgroundImageFix" result="effect1_dropShadow_644_3871"/>
<feBlend mode="normal" in="SourceGraphic" in2="effect1_dropShadow_644_3871" result="shape"/>
</filter>
</defs>
</svg>
