<svg width="137" height="45" viewBox="0 0 137 45" fill="none" xmlns="http://www.w3.org/2000/svg">
<g filter="url(#filter0_d_644_3856)">
<path fill-rule="evenodd" clip-rule="evenodd" d="M127.969 37H8.77288C7.51124 37 6.30091 36.5135 5.40652 35.6468C4.51213 34.7801 4.00643 33.6038 4 32.375V4.625C4.00471 3.39568 4.50985 2.21837 5.40462 1.35133C6.29938 0.484282 7.51071 -0.00169375 8.77288 4.43565e-06H127.969C129.23 -1.15329e-05 130.441 0.486506 131.335 1.35319C132.229 2.21987 132.735 3.3962 132.741 4.625V32.375C132.735 33.6038 132.229 34.7801 131.335 35.6468C130.441 36.5135 129.23 37 127.969 37Z" fill="black"/>
<path fill-rule="evenodd" clip-rule="evenodd" d="M127.969 0.740146C129.028 0.740372 130.045 1.1491 130.796 1.87703C131.547 2.60496 131.972 3.59291 131.978 4.625V32.375C131.974 33.4078 131.55 34.397 130.798 35.1254C130.047 35.8538 129.029 36.2618 127.969 36.2598H8.77288C7.71255 36.2606 6.69508 35.8523 5.94304 35.1242C5.191 34.3962 4.76561 33.4077 4.75992 32.375V4.625C4.76339 3.5916 5.18807 2.60185 5.94059 1.87335C6.69312 1.14485 7.71188 0.73724 8.77288 0.740146H127.969ZM127.969 3.93081e-10H8.77288C7.51124 -1.59682e-05 6.30091 0.486502 5.40652 1.35318C4.51213 2.21986 4.00643 3.3962 4 4.625L4 32.375C4.00471 33.6043 4.50985 34.7816 5.40462 35.6487C6.29938 36.5157 7.51071 37.0017 8.77288 37H127.969C129.23 37 130.441 36.5135 131.335 35.6468C132.229 34.7801 132.735 33.6038 132.741 32.375V4.625C132.735 3.3962 132.229 2.21986 131.335 1.35318C130.441 0.486502 129.23 -1.59682e-05 127.969 3.9308e-10V3.93081e-10Z" fill="#A6A6A6"/>
<path d="M71.8173 12.2399C71.4154 12.249 71.0161 12.1764 70.6446 12.0266C70.2732 11.8769 69.9378 11.6534 69.6601 11.3703C69.3779 11.0904 69.1555 10.7587 69.006 10.3945C68.8564 10.0302 68.7825 9.64058 68.7888 9.24831C68.7789 8.85584 68.8511 8.46552 69.0008 8.10105C69.1506 7.73658 69.3749 7.40557 69.6601 7.12815C69.937 6.84522 70.2715 6.62172 70.6421 6.47197C71.0128 6.32223 71.4115 6.24954 71.8126 6.25856C72.2143 6.25118 72.6131 6.3246 72.9843 6.47423C73.3555 6.62385 73.6909 6.84647 73.9697 7.12815C74.529 7.69945 74.841 8.45851 74.841 9.24787C74.841 10.0372 74.529 10.7963 73.9697 11.3676C73.6937 11.6517 73.3596 11.8762 72.9887 12.0265C72.6179 12.1768 72.2188 12.2495 71.8173 12.2399ZM46.2366 12.2399C45.8347 12.2459 45.4356 12.1731 45.0632 12.0257C44.6908 11.8783 44.3528 11.6595 44.0691 11.3822C43.6339 10.9651 43.3363 10.4312 43.2143 9.84863C43.0923 9.26604 43.1513 8.66125 43.384 8.11154C43.6166 7.56183 44.0123 7.09218 44.5204 6.76261C45.0285 6.43303 45.6261 6.25849 46.2366 6.26131C46.6529 6.26063 47.0648 6.34381 47.4466 6.5056C47.8004 6.64543 48.1158 6.86392 48.3675 7.14364L48.4246 7.21018L47.7826 7.82363L47.7161 7.74708C47.5341 7.53796 47.305 7.37268 47.0465 7.2642C46.788 7.15572 46.5073 7.10698 46.2263 7.12178C45.9507 7.11842 45.6773 7.16895 45.4221 7.27041C45.167 7.37187 44.9354 7.52217 44.741 7.71242C44.3394 8.12832 44.1157 8.6778 44.1157 9.24878C44.1157 9.81976 44.3394 10.3692 44.741 10.7851C45.1455 11.1639 45.6848 11.3755 46.2459 11.3755C46.807 11.3755 47.3462 11.1639 47.7507 10.7851C48.0033 10.5217 48.157 10.1828 48.1869 9.82348H46.1279V8.96121H49.0694L49.0815 9.0396C49.106 9.18309 49.1204 9.32805 49.1246 9.47346C49.1414 9.82433 49.085 10.1749 48.9587 10.5039C48.8324 10.8329 48.6389 11.1336 48.3899 11.3876C48.1124 11.6679 47.7779 11.8884 47.4076 12.0352C47.0374 12.182 46.6397 12.2517 46.2402 12.2399H46.2366ZM80.2485 12.1178H79.3416L76.564 7.78808L76.5873 8.56743V12.115H75.6805V6.38254H76.7156L76.7436 6.4263L79.3556 10.5044L79.3323 9.72688V6.38254H80.2485V12.1178ZM65.0014 12.1178H64.0824V7.24573H62.4915V6.38346H66.5962V7.24573H65.0052V12.1178H65.0014ZM61.7399 12.1178H60.8237V6.38346H61.7399V12.1178ZM56.5927 12.1178H55.6765V7.24573H54.0856V6.38346H58.1902V7.24573H56.5993L56.5927 12.1178ZM53.5044 12.1086H49.9903V6.38346H53.5044V7.24573H50.9083V8.81901H53.248V9.67219H50.9083V11.2454H53.5044V12.1086ZM70.3386 10.7778C70.5311 10.9711 70.7622 11.124 71.0176 11.2272C71.273 11.3303 71.5474 11.3815 71.8238 11.3776C72.1007 11.3846 72.376 11.3348 72.6319 11.2314C72.8877 11.1281 73.1185 10.9736 73.3091 10.7778C73.6985 10.3596 73.9142 9.8152 73.9142 9.25059C73.9142 8.68598 73.6985 8.1416 73.3091 7.72338C73.1164 7.53025 72.8853 7.37743 72.6299 7.2743C72.3745 7.17117 72.1003 7.11988 71.8238 7.12359C71.5473 7.11632 71.2724 7.16599 71.017 7.26935C70.7615 7.3727 70.5313 7.52743 70.3414 7.72338C69.9525 8.1416 69.7367 8.68547 69.7359 9.24973C69.735 9.81399 69.9491 10.3585 70.3368 10.7778H70.3386Z" fill="white"/>
<path fill-rule="evenodd" clip-rule="evenodd" d="M68.7063 20.1236C67.9077 20.1259 67.1279 20.3587 66.4651 20.7925C65.8023 21.2263 65.2863 21.8416 64.9824 22.5609C64.6784 23.2801 64.6002 24.0709 64.7574 24.8335C64.9147 25.596 65.3005 26.2961 65.866 26.8452C66.4315 27.3943 67.1513 27.7679 67.9347 27.9188C68.7181 28.0696 69.5298 27.991 70.2674 27.6928C71.0049 27.3947 71.6351 26.8903 72.0785 26.2435C72.5219 25.5966 72.7586 24.8363 72.7586 24.0585C72.7671 23.5385 72.668 23.0221 72.4672 22.5402C72.2664 22.0582 71.9681 21.6206 71.5899 21.2534C71.2118 20.8862 70.7615 20.5969 70.2661 20.4028C69.7707 20.2086 69.2402 20.1137 68.7063 20.1236ZM68.7063 26.4348C68.2143 26.4696 67.723 26.3593 67.2963 26.1182C66.8696 25.8771 66.5273 25.5165 66.3141 25.0833C66.1008 24.6501 66.0265 24.1643 66.1008 23.6893C66.175 23.2144 66.3944 22.7722 66.7304 22.4204C67.0663 22.0686 67.5031 21.8235 67.9842 21.717C68.4652 21.6105 68.9679 21.6476 69.427 21.8234C69.8861 21.9992 70.2801 22.3056 70.5579 22.7026C70.8356 23.0997 70.9843 23.569 70.9842 24.0494C70.9989 24.3525 70.9512 24.6554 70.8441 24.9404C70.7369 25.2253 70.5725 25.4866 70.3604 25.7088C70.1482 25.9309 69.8926 26.1096 69.6085 26.2343C69.3245 26.359 69.0177 26.4272 68.7063 26.4348ZM59.8652 20.1236C59.0667 20.1259 58.2868 20.3587 57.624 20.7925C56.9612 21.2263 56.4453 21.8416 56.1414 22.5609C55.8375 23.2801 55.7592 24.0709 55.9165 24.8335C56.0737 25.596 56.4594 26.2961 57.0249 26.8452C57.5904 27.3943 58.3104 27.7679 59.0937 27.9188C59.8771 28.0696 60.6888 27.991 61.4263 27.6928C62.1638 27.3947 62.7941 26.8903 63.2375 26.2435C63.6809 25.5966 63.9175 24.8363 63.9175 24.0585C63.926 23.5385 63.8269 23.0221 63.6261 22.5402C63.4253 22.0582 63.127 21.6206 62.7489 21.2534C62.3707 20.8862 61.9204 20.5969 61.425 20.4028C60.9296 20.2086 60.3991 20.1137 59.8652 20.1236ZM59.8652 26.4348C59.3732 26.4694 58.882 26.359 58.4555 26.1178C58.0289 25.8766 57.6868 25.5158 57.4737 25.0826C57.2606 24.6493 57.1864 24.1636 57.2607 23.6887C57.3351 23.2138 57.5545 22.7717 57.8905 22.42C58.2265 22.0683 58.6635 21.8233 59.1444 21.7169C59.6254 21.6105 60.1282 21.6476 60.5872 21.8234C61.0462 21.9993 61.4403 22.3057 61.7179 22.7027C61.9956 23.0998 62.1441 23.569 62.1441 24.0494C62.1587 24.3526 62.1111 24.6556 62.0039 24.9406C61.8967 25.2256 61.7321 25.4869 61.5198 25.7091C61.3076 25.9313 61.0518 26.1099 60.7677 26.2345C60.4836 26.3592 60.1767 26.4273 59.8652 26.4348ZM49.3452 21.3258V22.9912H53.4499C53.389 23.7713 53.0623 24.5092 52.5216 25.0877C52.1111 25.4961 51.617 25.816 51.0714 26.0266C50.5258 26.2372 49.9409 26.3337 49.3546 26.31C48.1568 26.2933 47.0139 25.8181 46.1729 24.9872C45.3319 24.1563 44.8604 23.0363 44.8604 21.8696C44.8604 20.7028 45.3319 19.5829 46.1729 18.752C47.0139 17.9211 48.1568 17.4458 49.3546 17.4291C50.5048 17.4162 51.6142 17.8445 52.443 18.6214L53.6595 17.4364C53.0948 16.8913 52.4238 16.4618 51.6861 16.173C50.9484 15.8841 50.1589 15.7419 49.364 15.7547C47.701 15.7547 46.1061 16.3981 44.9302 17.5434C43.7543 18.6887 43.0938 20.2421 43.0938 21.8618C43.0938 23.4815 43.7543 25.0349 44.9302 26.1802C46.1061 27.3255 47.701 27.9689 49.364 27.9689C50.1771 28.0016 50.9881 27.8655 51.743 27.5695C52.498 27.2736 53.1796 26.8247 53.7428 26.2526C54.7424 25.1896 55.276 23.7883 55.2299 22.3476C55.2348 21.9994 55.2035 21.6515 55.1363 21.3094H49.3434L49.3452 21.3258ZM92.376 22.622C92.1336 21.908 91.6712 21.2841 91.0515 20.8354C90.4319 20.3866 89.6852 20.1349 88.9134 20.1145C88.3944 20.1176 87.8814 20.2232 87.4055 20.425C86.9296 20.6267 86.5007 20.9204 86.1448 21.2882C85.7888 21.6561 85.5131 22.0905 85.3345 22.5651C85.1558 23.0397 85.0779 23.5446 85.1054 24.0494C85.0931 24.5669 85.1882 25.0815 85.3849 25.5623C85.5817 26.0432 85.876 26.4804 86.2503 26.8478C86.6247 27.2152 87.0714 27.5053 87.5635 27.7006C88.0557 27.8959 88.5832 27.9924 89.1146 27.9844C89.7809 27.9889 90.4379 27.8315 91.0261 27.5266C91.6144 27.2217 92.1152 26.7788 92.4836 26.2379L91.1126 25.3428C90.9075 25.6767 90.6165 25.9526 90.2684 26.1435C89.9203 26.3343 89.5271 26.4335 89.1277 26.4312C88.7151 26.4473 88.3071 26.3422 87.9566 26.1296C87.6062 25.917 87.3295 25.6067 87.1624 25.239L92.5642 23.0595L92.3751 22.622H92.376ZM86.8676 23.9373C86.8491 23.6512 86.8893 23.3645 86.9858 23.0937C87.0823 22.8229 87.2331 22.5735 87.4295 22.3601C87.6259 22.1466 87.864 21.9734 88.1298 21.8504C88.3956 21.7275 88.684 21.6573 88.9779 21.644C89.284 21.6237 89.5895 21.692 89.8559 21.8402C90.1223 21.9885 90.3377 22.21 90.4753 22.4771L86.8676 23.9373ZM82.4794 27.7501H84.2575V16.1886H82.4794V27.7501ZM79.566 20.9986H79.5024C79.2324 20.7116 78.9025 20.4843 78.5347 20.332C78.167 20.1796 77.77 20.1058 77.3705 20.1154C76.328 20.1563 75.3421 20.5884 74.6194 21.3213C73.8966 22.0542 73.4931 23.0309 73.4931 24.0471C73.4931 25.0633 73.8966 26.0402 74.6194 26.773C75.3421 27.5059 76.328 27.938 77.3705 27.979C77.771 27.9875 78.1687 27.912 78.5366 27.7575C78.9044 27.6031 79.2338 27.3733 79.5024 27.0839H79.566V27.649C79.566 29.1502 78.7416 29.9606 77.4136 29.9606C76.9701 29.9502 76.5398 29.8117 76.1773 29.5627C75.8147 29.3138 75.5362 28.9656 75.3771 28.5623L73.8358 29.1894C74.1278 29.8786 74.6238 30.4674 75.2606 30.881C75.8974 31.2946 76.6462 31.5142 77.4116 31.5119C79.4911 31.5119 81.2486 30.3197 81.2486 27.4102V20.3496H79.5716V20.9977L79.566 20.9986ZM77.5295 26.4358C76.9164 26.3848 76.3453 26.1116 75.929 25.6701C75.5128 25.2286 75.2817 24.6511 75.2817 24.0517C75.2817 23.4523 75.5128 22.8748 75.929 22.4333C76.3453 21.9918 76.9164 21.7186 77.5295 21.6677C77.8341 21.6822 78.1326 21.7563 78.4071 21.8855C78.6817 22.0148 78.9267 22.1965 79.1275 22.42C79.3284 22.6435 79.4811 22.904 79.5764 23.1861C79.6716 23.4683 79.7075 23.7662 79.6821 24.0622C79.708 24.3573 79.6721 24.6544 79.5766 24.9355C79.4811 25.2167 79.3282 25.4761 79.1267 25.698C78.9253 25.9198 78.6797 26.0995 78.4048 26.2262C78.13 26.3529 77.8316 26.4238 77.5277 26.4348L77.5295 26.4358ZM100.683 16.1895H96.4377V27.7511H98.2158V23.3758H100.686C101.188 23.4028 101.69 23.3299 102.161 23.1616C102.632 22.9933 103.064 22.7331 103.428 22.397C103.793 22.0608 104.084 21.6558 104.282 21.2066C104.481 20.7574 104.583 20.2735 104.583 19.7845C104.583 19.2955 104.481 18.8116 104.282 18.3624C104.084 17.9132 103.793 17.5081 103.428 17.172C103.064 16.8358 102.632 16.5757 102.161 16.4074C101.69 16.2391 101.188 16.1662 100.686 16.1931L100.683 16.1895ZM100.735 21.7579H98.2083V17.7901H100.735C101.006 17.7844 101.276 17.8316 101.528 17.9287C101.78 18.0259 102.01 18.1711 102.204 18.3559C102.398 18.5406 102.552 18.7613 102.657 19.0048C102.762 19.2483 102.816 19.5098 102.816 19.774C102.816 20.0381 102.762 20.2997 102.657 20.5432C102.552 20.7867 102.398 21.0073 102.204 21.1921C102.01 21.3769 101.78 21.5221 101.528 21.6193C101.276 21.7164 101.006 21.7636 100.735 21.7579ZM111.685 20.1035C111.038 20.0671 110.394 20.2147 109.832 20.5284C109.269 20.842 108.813 21.3081 108.518 21.87L110.09 22.5081C110.245 22.2288 110.481 21.9995 110.768 21.8481C111.054 21.6966 111.38 21.6295 111.705 21.6549C112.156 21.6116 112.606 21.7442 112.957 22.0235C113.308 22.3028 113.531 22.7061 113.577 23.1452V23.2674C113.007 22.9761 112.373 22.8241 111.73 22.8243C110.032 22.8243 108.31 23.7286 108.31 25.424C108.326 25.7817 108.415 26.1328 108.572 26.4564C108.73 26.7799 108.953 27.0693 109.227 27.3073C109.502 27.5454 109.823 27.7273 110.171 27.8422C110.519 27.9571 110.888 28.0027 111.254 27.9762C111.7 28.0016 112.144 27.91 112.541 27.7112C112.938 27.5125 113.273 27.2137 113.511 26.846H113.575V27.7411H115.285V23.312C115.284 21.2447 113.712 20.1026 111.687 20.1026L111.685 20.1035ZM111.462 26.4358C110.882 26.4358 110.069 26.1623 110.069 25.4486C110.069 24.5535 111.083 24.2144 111.948 24.2144C112.513 24.1976 113.072 24.3325 113.563 24.6045C113.501 25.1058 113.253 25.5679 112.867 25.9046C112.481 26.2414 111.982 26.4299 111.464 26.4348L111.462 26.4358ZM121.521 20.3505L119.484 25.3638H119.421L117.31 20.3505H115.401L118.568 27.3609L116.764 31.2568H118.611L123.483 20.3505H121.521ZM105.553 27.7501H107.331V16.1886H105.553V27.7501Z" fill="white"/>
<path fill-rule="evenodd" clip-rule="evenodd" d="M13.9105 6.96823C13.6019 7.33435 13.4471 7.80072 13.4773 8.27351V28.7278C13.4429 29.1993 13.6021 29.6649 13.9199 30.0221L13.9929 30.0841L25.7585 18.6246V18.3685L13.9845 6.90625L13.9105 6.96823Z" fill="url(#paint0_linear_644_3856)"/>
<path fill-rule="evenodd" clip-rule="evenodd" d="M29.6741 22.4558L25.75 18.6339V18.3659L29.6741 14.5439L29.7592 14.595L34.4011 17.1645C35.73 17.8937 35.73 19.0978 34.4011 19.8353L29.7592 22.4048L29.6741 22.4558Z" fill="url(#paint1_linear_644_3856)"/>
<path fill-rule="evenodd" clip-rule="evenodd" d="M29.7589 22.4049L25.7497 18.5L13.9102 30.0315C14.1807 30.2629 14.5253 30.3956 14.8851 30.4069C15.245 30.4182 15.5977 30.3074 15.8829 30.0935L29.7589 22.4049Z" fill="url(#paint2_linear_644_3856)"/>
<path fill-rule="evenodd" clip-rule="evenodd" d="M29.7589 14.5949L15.8829 6.91814C15.5988 6.70154 15.2456 6.58906 14.885 6.60039C14.5244 6.61172 14.1793 6.74613 13.9102 6.98012L25.7497 18.4998L29.7589 14.5949Z" fill="url(#paint3_linear_644_3856)"/>
<path opacity="0.2" fill-rule="evenodd" clip-rule="evenodd" d="M29.6722 22.3223L15.8908 29.9479C15.619 30.1524 15.2858 30.2641 14.9425 30.2657C14.5991 30.2674 14.2647 30.1589 13.991 29.957L13.918 30.0281L13.991 30.0901C14.265 30.2914 14.5993 30.3995 14.9425 30.3978C15.2856 30.3962 15.6188 30.2849 15.8908 30.081L29.7667 22.4043L29.6722 22.3223Z" fill="black"/>
<path opacity="0.12" fill-rule="evenodd" clip-rule="evenodd" d="M34.3993 19.7014L29.6602 22.322L29.7453 22.4049L34.3872 19.8354C34.6601 19.7196 34.8961 19.5346 35.0706 19.2997C35.2451 19.0649 35.3516 18.7887 35.3792 18.5C35.3268 18.7621 35.2104 19.0081 35.0399 19.2172C34.8693 19.4263 34.6496 19.5924 34.3993 19.7014Z" fill="black"/>
<path opacity="0.25" fill-rule="evenodd" clip-rule="evenodd" d="M15.8826 7.05464L34.4005 17.3009C34.6514 17.4109 34.872 17.577 35.0444 17.7858C35.2168 17.9946 35.3361 18.2401 35.3925 18.5023C35.365 18.2136 35.2584 17.9374 35.0839 17.7025C34.9094 17.4676 34.6734 17.2827 34.4005 17.1669L15.8826 6.91791C14.5537 6.17777 13.4766 6.79578 13.4766 8.27425V8.40824C13.4766 6.92704 14.5537 6.31996 15.8826 7.05464Z" fill="white"/>
</g>
<defs>
<filter id="filter0_d_644_3856" x="0" y="0" width="136.742" height="45" filterUnits="userSpaceOnUse" color-interpolation-filters="sRGB">
<feFlood flood-opacity="0" result="BackgroundImageFix"/>
<feColorMatrix in="SourceAlpha" type="matrix" values="0 0 0 0 0 0 0 0 0 0 0 0 0 0 0 0 0 0 127 0" result="hardAlpha"/>
<feOffset dy="4"/>
<feGaussianBlur stdDeviation="2"/>
<feComposite in2="hardAlpha" operator="out"/>
<feColorMatrix type="matrix" values="0 0 0 0 0 0 0 0 0 0 0 0 0 0 0 0 0 0 0.5 0"/>
<feBlend mode="normal" in2="BackgroundImageFix" result="effect1_dropShadow_644_3856"/>
<feBlend mode="normal" in="SourceGraphic" in2="effect1_dropShadow_644_3856" result="shape"/>
</filter>
<linearGradient id="paint0_linear_644_3856" x1="43.8433" y1="30.8953" x2="42.4094" y2="30.6899" gradientUnits="userSpaceOnUse">
<stop stop-color="#00A0FF"/>
<stop offset="0.007" stop-color="#00A1FF"/>
<stop offset="0.26" stop-color="#00BEFF"/>
<stop offset="0.512" stop-color="#00D2FF"/>
<stop offset="0.76" stop-color="#00DFFF"/>
<stop offset="1" stop-color="#00E3FF"/>
</linearGradient>
<linearGradient id="paint1_linear_644_3856" x1="44.5632" y1="29.4104" x2="42.0548" y2="29.4104" gradientUnits="userSpaceOnUse">
<stop stop-color="#FFE000"/>
<stop offset="0.409" stop-color="#FFBD00"/>
<stop offset="0.775" stop-color="#FFA500"/>
<stop offset="1" stop-color="#FF9C00"/>
</linearGradient>
<linearGradient id="paint2_linear_644_3856" x1="44.4349" y1="29.7646" x2="43.5162" y2="27.7088" gradientUnits="userSpaceOnUse">
<stop stop-color="#FF3A44"/>
<stop offset="1" stop-color="#C31162"/>
</linearGradient>
<linearGradient id="paint3_linear_644_3856" x1="43.3255" y1="31.5067" x2="43.74" y2="30.591" gradientUnits="userSpaceOnUse">
<stop stop-color="#32A071"/>
<stop offset="0.068" stop-color="#2DA771"/>
<stop offset="0.476" stop-color="#15CF74"/>
<stop offset="0.801" stop-color="#06E775"/>
<stop offset="1" stop-color="#00F076"/>
</linearGradient>
</defs>
</svg>
